# xmcd
#
# Track frame offsets: 
#        150
#        20452
#        41849
#        66953
#        93144
#        114983
#        138012
#        162914
#        181744
#        200498
#        225279
#        249243
#        274695
#
# Disc length: 3875 seconds
#
# Revision: 0
# Processed by: cddbd v1.5.2PL0 Copyright (c) Steve Scherf et al.
# Submitted via: ExactAudioCopy v0.99pb4
#
DISCID=9d0f210d
DTITLE=Toan Nguyen - Ha Noi
DYEAR=2006
DGENRE=Country
TTITLE0=Nho mua thu Ha Noi_Toan Nguyen
TTITLE1=Noi nho mua dong_Toan Nguyen
TTITLE2=Ha Noi dau mua dong_Toan Nguyen
TTITLE3=Ha Noi dem tro gio_Toan Nguyen
TTITLE4=Ha Noi mua thu_Toan Nguyen
TTITLE5=Ha Noi mua vang con mua_Toan Nguyen
TTITLE6=Ha Noi ngay tro ve_Toan Nguyen
TTITLE7=Hoa sua_Toan Nguyen
TTITLE8=Im lang dem Ha Noi_Toan Nguyen
TTITLE9=Lang dang chieu dong Ha Noi_Toan Nguyen
TTITLE10=Mo ve noi xa lam_Toan Nguyen
TTITLE11=Ha Noi va toi_Toan Nguyen
TTITLE12=Mot dai kho mot toi_Toan Nguyen
EXTD=
EXTT0=
EXTT1=
EXTT2=
EXTT3=
EXTT4=
EXTT5=
EXTT6=
EXTT7=
EXTT8=
EXTT9=
EXTT10=
EXTT11=
EXTT12=
PLAYORDER=
